# xmcd CD database file
#
# Track frame offsets:
#	150
#	15240
#	40135
#	57800
#	68692
#	88765
#	110067
#	133582
#	144835
#	164985
#	186552
#	200290
#	210155
#	223625
#	243972
#	255205
#	272417
#	285302
#	294392
#	315790
#
# Disc length: 4465 seconds
#
# Revision: 0
# Processed by: cddbd v1.5.1PL2 Copyright (c) Steve Scherf et al.
# Submitted via: CDex 1.51
#
DISCID=15116f14
DTITLE=The London Funk Allstars - London Funk, Vol. 1
DYEAR=1900
DGENRE=Jazz
TTITLE0=Represent
TTITLE1=Funky Sweater
TTITLE2=Sure Shot
TTITLE3=Coolin' Out
TTITLE4=Booyakka
TTITLE5=Listen to the Beat
TTITLE6=So Good
TTITLE7=Fetch!
TTITLE8=What's in the Basket?
TTITLE9=Can Ya Understand
TTITLE10=Bang Boogie Boogie
TTITLE11=Chicago
TTITLE12=Chun Li vs. Wah Wah Man
TTITLE13=Wikki's Revenge
TTITLE14=Good Life
TTITLE15=Body Rock
TTITLE16=6 Million Dollar Man
TTITLE17=Everybody Git Fonky
TTITLE18=Only For The Hip Hop Lovers
TTITLE19=Goodbye Cruel World
EXTD=
EXTT0=
EXTT1=
EXTT2=
EXTT3=
EXTT4=
EXTT5=
EXTT6=
EXTT7=
EXTT8=
EXTT9=
EXTT10=
EXTT11=
EXTT12=
EXTT13=
EXTT14=
EXTT15=
EXTT16=
EXTT17=
EXTT18=
EXTT19=
PLAYORDER=
